<mxfile host="app.diagrams.net" modified="2023-03-16T04:13:52.563Z" agent="5.0 (X11; Linux x86_64) AppleWebKit/537.36 (KHTML, like Gecko) Chrome/111.0.0.0 Safari/537.36" etag="QR-kmu_Jj_qoLeja8Wqd" version="21.0.6" type="github">
  <diagram name="Page-1" id="SRzr92lmIdbnVQ3M3BMy">
    <mxGraphModel dx="2000" dy="1135" grid="1" gridSize="10" guides="1" tooltips="1" connect="1" arrows="1" fold="1" page="1" pageScale="1" pageWidth="827" pageHeight="1169" math="0" shadow="0">
      <root>
        <mxCell id="0" />
        <mxCell id="1" parent="0" />
        <mxCell id="u-y1XbqzG414l-YFXD2_-10" style="edgeStyle=orthogonalEdgeStyle;rounded=0;orthogonalLoop=1;jettySize=auto;html=1;entryX=0.5;entryY=1;entryDx=0;entryDy=0;" parent="1" source="u-y1XbqzG414l-YFXD2_-2" target="u-y1XbqzG414l-YFXD2_-3" edge="1">
          <mxGeometry relative="1" as="geometry" />
        </mxCell>
        <mxCell id="u-y1XbqzG414l-YFXD2_-2" value="Computer" style="rounded=0;whiteSpace=wrap;html=1;" parent="1" vertex="1">
          <mxGeometry x="320" y="360" width="120" height="60" as="geometry" />
        </mxCell>
        <mxCell id="u-y1XbqzG414l-YFXD2_-4" style="edgeStyle=orthogonalEdgeStyle;rounded=0;orthogonalLoop=1;jettySize=auto;html=1;entryX=0.5;entryY=0;entryDx=0;entryDy=0;" parent="1" source="u-y1XbqzG414l-YFXD2_-3" target="u-y1XbqzG414l-YFXD2_-2" edge="1">
          <mxGeometry relative="1" as="geometry" />
        </mxCell>
        <mxCell id="u-y1XbqzG414l-YFXD2_-3" value="Ardupilot" style="rounded=0;whiteSpace=wrap;html=1;" parent="1" vertex="1">
          <mxGeometry x="320" y="250" width="120" height="60" as="geometry" />
        </mxCell>
        <mxCell id="u-y1XbqzG414l-YFXD2_-6" value="Gazebo/Real world" style="swimlane;whiteSpace=wrap;html=1;" parent="1" vertex="1">
          <mxGeometry x="30" y="310" width="170" height="150" as="geometry" />
        </mxCell>
        <mxCell id="u-y1XbqzG414l-YFXD2_-1" value="camera" style="rounded=1;whiteSpace=wrap;html=1;" parent="u-y1XbqzG414l-YFXD2_-6" vertex="1">
          <mxGeometry x="20" y="50" width="120" height="60" as="geometry" />
        </mxCell>
        <mxCell id="6szvUEqwh5Zv-YxJbquh-1" style="edgeStyle=orthogonalEdgeStyle;rounded=0;orthogonalLoop=1;jettySize=auto;html=1;entryX=0;entryY=0.5;entryDx=0;entryDy=0;" edge="1" parent="1" source="u-y1XbqzG414l-YFXD2_-1" target="u-y1XbqzG414l-YFXD2_-2">
          <mxGeometry relative="1" as="geometry" />
        </mxCell>
      </root>
    </mxGraphModel>
  </diagram>
</mxfile>
